<svg id="Layer_1" data-name="Layer 1" xmlns="http://www.w3.org/2000/svg" viewBox="0 0 159.49 159.49"><defs><style>.cls-1{fill:#92ba5d;}.cls-2{fill:#eaca2d;}.cls-3{fill:#bc9f22;}.cls-4{fill:none;stroke:#000;stroke-miterlimit:10;stroke-width:3px;}</style></defs><path class="cls-1" d="M54.42,80.31s.58-2.54-4.27-3S35,79.16,35,79.16l-9.1,5.89.36-3.3,7.29-11.67,2.84-3-1.79-2.57L22.37,62.25,14.13,63l-.6-1.59L25.85,51.14l11-4,.63-2.44-1.47-9.62s2.65-12.15,4.42-13.35,5.66-8,5.66-8l2-.36,5.15,10.18L58.7,36.26l2.49,1s6.66-9.51,8.25-9.86,9.12-4.86,9.12-4.86l5.72-.93-3.13,7.63S78.26,39.12,78.37,42a67.16,67.16,0,0,0,1.25,8.26l1.13,4.57-7-2.05-1.56-.44L73.3,58.6,60.44,72.28l-6-1.15Z"/><path class="cls-2" d="M117.63,63.81S104,49,94.27,48.15l-4.65-1-.56,4.69L81.54,55l-9-1.74,2.1,6.26L69.17,63.4l-8.26,8-3.87,0L54.8,72.61l-.09,7.14-4.11,8-1.8,2.2s2.21,15.72,11.76,24c8.46,7.33,21.29,22.55,21.29,22.55s10.77,10.85,20.49,11,20.53-5.29,20.53-5.29l18.87-18.46s5.88-9.14,5.75-18.37-9.6-20.68-9.6-20.68Z"/><path class="cls-3" d="M129.66,80.51s.42-3.61-7-4.74a57.4,57.4,0,0,1-14.28-4.41l-.84,2.39,2.74,10.38s.94,6.92,5.58,8.23a48.34,48.34,0,0,0,9.67,1.54l2-3.54,6.18,2v-3Z"/><path class="cls-3" d="M109.54,98.29s2.75-3.68-4.68-4.81a57.68,57.68,0,0,1-14.27-4.42l-.84,2.39,2.73,10.39s1,6.92,5.59,8.23a49.19,49.19,0,0,0,9.67,1.54l2-3.54,2.69.87-.43-2.08Z"/><path class="cls-3" d="M111.56,136.83s2.1-4.72-5.32-5.85A57.57,57.57,0,0,1,92,126.57L91.13,129l2.73,10.39s1,6.92,5.58,8.23,7.09.41,7.09.41l4.6-1.23,3,.24.34-2.19Z"/><path class="cls-3" d="M73.75,80.51s1.73-3.91-3.65-4.73a58.33,58.33,0,0,1-14.28-4.42L55,73.75l2.73,10.38s1,6.92,5.58,8.23A48.34,48.34,0,0,0,73,93.9l2-3.53,1.65-.47Z"/><path class="cls-3" d="M145.54,116.77s2.44-2.51-5-3.64a96.4,96.4,0,0,1-12.86-2.83l-.84,2.39,2.74,10.39s-.54,7.72,4.1,9c.34-.29,4-3.87,4-3.87l4.68-5.37Z"/><path class="cls-4" d="M55,79.17s-11.59-8-30.12,5.88c0,0,13.36-37.94,43.16-21.34"/><path class="cls-4" d="M81.19,53.51s-8.61-11.7,4.23-32.63c0,0-31.52,3-27.41,39.05"/><path class="cls-4" d="M57.92,48.62s-25.57-11.55-46,14.85c0,0,17.78-4.15,25.35,2.78"/><path class="cls-4" d="M38.35,46.35S29.19,32.52,47.48,12.2c0,0,13,17.07,12.17,28.71"/><polyline class="cls-4" points="109.8 131.08 89.55 125.35 94.65 145.5"/><polyline class="cls-4" points="126.86 113.33 107.54 107.86 112.7 128.25"/><polyline class="cls-4" points="145.54 96.03 125.53 90.36 130.57 110.3"/><polyline class="cls-4" points="132.38 133.4 108.24 126.57 114.64 146.33"/><polyline class="cls-4" points="146.22 114.73 126.22 109.07 132.38 133.4"/><polyline class="cls-4" points="91.31 112.07 71.07 106.34 77.22 130.66"/><polyline class="cls-4" points="108.38 94.32 89.06 88.85 94.22 109.25"/><polyline class="cls-4" points="132.38 78.53 107.04 71.36 112.09 91.3"/><polyline class="cls-4" points="109.53 113.16 89.75 107.56 94.8 127.49"/><polyline class="cls-4" points="127.52 95.66 107.74 90.06 112.78 110"/><path class="cls-4" d="M79.75,54.84a29.16,29.16,0,0,1,10.81-3.18"/><path class="cls-4" d="M59.65,72.61,72.86,59.82c.44-.42.89-.83,1.35-1.22"/><path class="cls-4" d="M52,88.36A29.22,29.22,0,0,1,56.34,76.9"/><path class="cls-4" d="M95,73.68,89,48.14c14.77-1.73,25,11.94,25,11.94l10.78,11.11L139.14,86a29.27,29.27,0,0,1-.58,41.39l-12.36,12c-11.6,11.27-30.22,8.87-41.4-.58l-25.27-26s-13.05-11-10.36-25.53L73.8,94.06"/><polyline class="cls-4" points="91.21 76.66 71.88 71.19 77.04 91.59"/><polyline class="cls-4" points="91.51 57.81 72.19 52.35 77.35 72.75"/><polyline class="cls-4" points="59.65 72.61 54.42 71.13 59.17 89.9"/><line class="cls-4" x1="73.75" y1="76.6" x2="59.65" y2="72.61"/><polyline class="cls-4" points="91.13 95.15 72.58 89.9 77.31 108.59"/><polyline class="cls-4" points="73.33 113.59 58.29 106.34 58.5 112.5"/><line class="cls-4" x1="91.83" y1="132.38" x2="76.85" y2="126.57"/><line class="cls-4" x1="128.39" y1="77.74" x2="135.08" y2="92.36"/><polyline class="cls-4" points="113.56 73.75 107.74 58.76 112.46 58.92"/><polyline class="cls-4" points="109.11 77.65 90.56 72.41 95.29 91.09"/></svg>