<svg id="Layer_1" data-name="Layer 1" xmlns="http://www.w3.org/2000/svg" viewBox="0 0 159.49 159.49"><defs><style>.cls-1{fill:#e2e1d3;}.cls-1,.cls-2,.cls-3,.cls-4{stroke:#000;stroke-miterlimit:10;stroke-width:3px;}.cls-2{fill:none;}.cls-3{fill:#efe4bf;}.cls-4{fill:#845634;}</style></defs><path class="cls-1" d="M80.92,70.06S68.19,50.17,51.15,46.73s-14.34,6.1-19.91,9.36-8.67.17-13.43,4.19c-3.35,2.82-1,9-3.72,13.35-4.94,8.14.91,15.3,3.27,22.19s6.82-1.93,12.46,4.84C37.07,109.37,37,114,55,107.56"/><path class="cls-2" d="M27.36,72.93s1.32-7.31,7.46-8.5c0,0,4.33-.6,5.77-1.57"/><path class="cls-1" d="M140.76,29.62S133.33.43,96.7,12.94c0,0-20.86-4.89-32.83,15.05,0,0-13.78,14-.12,24.28L84.64,65.19l8.44,1.06s15,4.22,22.68,3.78,27.87-17.76,27.87-17.76S154,41.59,140.76,29.62Z"/><path class="cls-3" d="M140.59,30s-16.39-3.95-20.34,8c-12.66-1.72-10.11,12.9-10.11,12.9s1,8.08-.12,10.51c0,0,15.5-8.17,18-13.42L116.82,65.71S144.34,59.18,147.59,46,140.59,30,140.59,30Z"/><path class="cls-3" d="M56.91,90.55s-.23-1.88-7.21-6.37S33,81.46,27.54,89.59c-1.87-3.47-4.31-6.93-9.29-6.93S9.1,90.38,15.14,96a10.76,10.76,0,0,0,6.43,6.54,33.08,33.08,0,0,0,5.11,6.58c5.51,5.5,19.37,8.93,31-2.06"/><path class="cls-4" d="M79.75,91.45l19.94,16.06,36.72,37.81,2.17-1.91-3.8-8.16-30.49-34.59S101,79.07,112.4,74.35c0,0,29.77-5,32.71-24,0,0-13.78,14.86-28.29,15.4,0,0,11.11-7.57,11.21-17.69,0,0-10.39,10.16-18,13.42,0,0,1.66-12.82-2.07-16.26,0,0-2,14.91-7.26,17.45L90.06,48C89.8,59.92,93,64.29,93,64.29s-8.69-.42-21.15-9.12c0,0,8.15,17.27,27.3,17.62,0,0,1,2,0,6.61-1.29,6.14-3.56,9.69-3.56,12.86,0,0-8.9-2.77-11.65-8.26,0,0,3.86-10.29-5.87-18.41,0,0,3.39,8.46,1.94,13.54,0,0-2.29-5.63-10.27-10,0,0,6.65,10.16,4.65,15.78a30.37,30.37,0,0,1-12-10.25c-4.09-5.8-9.29-6.52-12.6-14.14,0,0-2.23,7.61.73,12.3a131.65,131.65,0,0,0,8.14,11.27s-6.86-3.48-14-3.48c-9,0-8.9,6-8.9,6s14.54-1.39,22,6.23c0,0-8.21,3.66-15.62,3.33a38.88,38.88,0,0,0,11.79,5s-9.32,5.2-19,5.89c0,0,11.64,10.55,28.79-2.51C71.74,98.39,79.75,91.45,79.75,91.45Z"/><path class="cls-2" d="M78.41,31.05s3.52.14,10.26-5.35,12.92-2.85,18.15.19"/></svg>