<svg id="Layer_1" data-name="Layer 1" xmlns="http://www.w3.org/2000/svg" viewBox="0 0 159.49 159.49"><defs><style>.cls-1{fill:#804c20;}.cls-1,.cls-2,.cls-3,.cls-4{stroke:#000;stroke-miterlimit:10;stroke-width:3px;}.cls-2{fill:#b56e33;}.cls-3{fill:none;}.cls-4{fill:#efe4bf;}</style></defs><path class="cls-1" d="M79.29,30.3,73,20.93A3.38,3.38,0,0,1,74.37,16l7.54-3.68a3.39,3.39,0,0,1,4.7,1.84l3.87,10.68"/><path class="cls-2" d="M139.65,146.75c-6.26,3.05-6.78-4-15.15-6.92-9.59-3.3-31.52-17.3-45.39-45.76S67.24,38,76.88,31.8l13.83-6.75c16.21-7.9,36.7,14.89,48.75,39.6s8.28,50.68,3.41,67.32C140.8,139,145.91,143.7,139.65,146.75Z"/><path class="cls-3" d="M88.54,26.11s5.67,3.28,9.06,5.37c14.13,8.73,31.3,26.72,37.71,54a79.59,79.59,0,0,1,.13,33.34"/><path class="cls-3" d="M107,38.52s12.47,11,11,32.83c.12,9.8-6.3,16.43-9.66,19"/><path class="cls-3" d="M81.35,43.31s-5,36.44,25.6,65.79"/><path class="cls-2" d="M14.49,146.22c-5.66-4,.31-7.87-1.15-16.6-1.66-10-3.27-31.07,18.54-61.63s43.6-37.13,53.6-31.61L98,45.31c14.65,10.46,4.41,39.3-11.54,61.63S45.92,138.35,29,142C21.81,143.55,20.15,150.26,14.49,146.22Z"/><path class="cls-4" d="M29.07,115.5c-.79-6.77-1.21-21.14,14.18-42.7s30-26.72,36.48-23.26l8,5.72C97.13,62,89.46,82,78.21,97.76s-27.82,22.71-39.15,25.73C34.26,124.77,29.77,121.43,29.07,115.5Z"/><path class="cls-3" d="M84,52.62S68,60.92,78.29,68.34c7.22,5.2,13,2.54,13,2.54"/><path class="cls-3" d="M75,61.56s-10.17,9.2-17.48-4.66"/><path class="cls-3" d="M73.56,63.81s-1.92,13-8.61,14.24-17.33-11-17.33-11"/><path class="cls-3" d="M69.79,74.39s-7.65,7.51,15.1,12.66"/><path class="cls-3" d="M39.1,79.75s12.5,13.12,19.43,8.18,1.83-10.65,1.83-10.65"/><path class="cls-3" d="M71.57,82s-7.6-5.07-9.71,2.19C58.45,96,76.38,100.33,76.38,100.33"/><path class="cls-3" d="M61.92,90s-8.25-4-9.83,4.86S67.65,109.1,67.65,109.1"/><path class="cls-3" d="M43.15,83.37s8.56,5.24,9,8.32A37.84,37.84,0,0,1,52,96.2c0,1.16.5,2.18,0,2.91-1.72,2.47-4.43.69-8.31-.14-4.58-1.2-6.75-3.74-11.07-7.15"/><path class="cls-3" d="M29.76,101.14s4.94,8.25,12,9.11c5.6.69,8.45-3.75,8.13-7s-5.54-4-5.54-4"/><path class="cls-3" d="M67.65,109.1A34.48,34.48,0,0,1,59,105.17c-3.72-2.5-6.72-4.19-8.38-2-.67.9.62,2.12-2.34,4.9-1.71,1.61-.22,6.55,3.84,10.73"/><path class="cls-3" d="M38.19,123.67s-.65-6.59,2.79-11.41c4.5-6.3,8.67,3.86,8.67,3.86l1.3,3.21"/><path class="cls-3" d="M33.24,122.1s7.88-2.35,5.36-9.35c-2.2-6.13-9.21-9.61-9.21-9.61"/></svg>