<svg id="Layer_1" data-name="Layer 1" xmlns="http://www.w3.org/2000/svg" viewBox="0 0 159.49 159.49"><defs><style>.cls-1{fill:#92ba5d;}.cls-2{fill:#efe4bf;}.cls-3,.cls-5{fill:#637a37;}.cls-4{fill:none;}.cls-4,.cls-5,.cls-7{stroke:#000;stroke-miterlimit:10;stroke-width:3px;}.cls-6,.cls-7{fill:#cced85;}</style></defs><path class="cls-1" d="M134.62,65.81s-6-2.25-7.32-5.78L126,56.51l-3.74,5.87-36,69.11s-2.32,2-2.49,4.31c-.06.91,1.36,2,1.65,2.82,1,2.91,6,6,6,6s6.68,3.22,9.17,2.91a15.44,15.44,0,0,0,3.91-.93l6-10.3,26.46-50.75L146,68.12s-.1-1-.25-.91S138.85,68.07,134.62,65.81Z"/><path class="cls-2" d="M108.56,87.05s1.84,6.9,7.35,9.25,13.22,2,13.22,2l-2.3,5.56s-3.39,7.18-7.08,7.17-11.4-4.41-11.4-4.41L102.94,100l3.53-7.64Z"/><path class="cls-3" d="M24,112.49l1.72-3.71s.58-1.74-2.48-2.36-8-2.47-9.69-1.48-1.67,12.31,0,14.88S19.06,127,19.06,127l3.38,1.74-.11-8Z"/><path class="cls-4" d="M104.93,145.11c-1.68,3.16-7.78,3.21-13.63.1s-9.24-8.18-7.57-11.34"/><path class="cls-4" d="M124.57,108.08c-1.68,3.16-7.78,3.21-13.64.1s-9.24-8.18-7.56-11.35"/><path class="cls-4" d="M130.57,96.77c-1.68,3.16-7.79,3.21-13.64.1s-9.24-8.18-7.56-11.34"/><ellipse class="cls-5" cx="136.47" cy="60.03" rx="6.48" ry="12" transform="translate(19.49 152.47) rotate(-62.06)"/><line class="cls-4" x1="147.06" y1="65.65" x2="104.93" y2="145.11"/><line class="cls-4" x1="94.24" y1="146.22" x2="128.5" y2="81.62"/><path class="cls-4" d="M13.59,104.22s-7.3,13.38,9,25.85c-2-16,4.32-22.94,4.32-22.94"/><path class="cls-6" d="M17.39,95s7.82-9.53,17.76-4.53,12.27,19.6,12.27,19.6L53.94,126,40.31,113.92l-19.39-8.54-5.44-1-1.43-1.29Z"/><path class="cls-4" d="M56.7,132.66c-14.1-27.18-43.11-28.44-43.11-28.44S19,90.35,25.16,89.49,39.45,90.64,41.64,96"/><path class="cls-1" d="M36.54,18.15,40.8,29.92l41.64,99.49s-3.67,6.48-5.35,6.78-12.13,6-15.76,3.46-9.93-19.83-9.93-19.83l-28-68.32-10-24.31S20.25,28,23,27.1s10.7-5.67,11.49-7.29a14.11,14.11,0,0,0,1-4.3Z"/><line class="cls-4" x1="70.47" y1="139.24" x2="32.09" y2="45.78"/><ellipse class="cls-5" cx="23.79" cy="19.81" rx="12.43" ry="6.72" transform="translate(-5.74 10.52) rotate(-22.32)"/><path class="cls-4" d="M81.54,127.74c1.41,3.44-2.6,8.33-9,10.94s-12.65,1.94-14.06-1.49"/><polygon class="cls-2" points="51.65 54.93 50.02 54.93 43.73 61 33.58 63.86 28.49 62.53 30.05 67.82 32.39 73.79 37.44 75.7 47.91 73.21 53.65 68.74 55.32 65.31 53.33 59.87 51.65 54.93"/><polygon class="cls-2" points="72.34 105.96 70.72 105.96 64.42 112.03 54.27 114.89 49.19 113.56 50.75 118.85 53.09 124.82 58.13 126.73 68.6 124.24 74.34 119.77 76.01 116.35 74.03 110.9 72.34 105.96"/><path class="cls-4" d="M55.1,63.34c1.36,3.32-2.69,8.11-9,10.72s-12.61,2-14-1.27"/><path class="cls-4" d="M50.24,51.5c1.36,3.32-2.69,8.11-9,10.72s-12.61,2-14-1.27"/><path class="cls-4" d="M12.28,24.53,58.58,137.3"/><line class="cls-4" x1="35.29" y1="15.08" x2="81.58" y2="127.85"/><path class="cls-4" d="M75.75,113.64c1.36,3.31-2.69,8.11-9,10.72s-12.61,2-14-1.28"/><path class="cls-4" d="M70.8,101.83c1.36,3.31-2.67,8.11-9,10.7s-12.56,2-13.92-1.29"/><line class="cls-4" x1="66.75" y1="108.95" x2="71.9" y2="121.02"/><line class="cls-4" x1="46.37" y1="59.78" x2="51.51" y2="71.85"/><line class="cls-4" x1="111.93" y1="93.76" x2="105.94" y2="105.05"/><path class="cls-7" d="M95,112.54c9.75-24.45-11.81-38.65-11.81-38.65a54.46,54.46,0,0,1-4.92,17.27C73.16,102.5,70.1,113.6,84,134.76"/><path class="cls-4" d="M88.86,124.26S92,106.1,85.64,94"/><path class="cls-4" d="M81,106.2s7.75-4.59,8.55,10"/><line class="cls-4" x1="125.87" y1="54.41" x2="83.73" y2="133.87"/></svg>