<svg id="Layer_1" data-name="Layer 1" xmlns="http://www.w3.org/2000/svg" viewBox="0 0 159.49 159.49"><defs><style>.cls-1{fill:#a04124;}.cls-1,.cls-2,.cls-3,.cls-4,.cls-5{stroke:#000;stroke-miterlimit:10;stroke-width:3px;}.cls-2{fill:#d36539;}.cls-3,.cls-6{fill:#804c20;}.cls-4{fill:#e2e1d3;}.cls-5{fill:none;}</style></defs><path class="cls-1" d="M125.57,120.22,106,38.41C77.69,44.62,67,79.31,80.23,104.15s45.34,16.07,45.34,16.07"/><path class="cls-2" d="M145.8,72.11c5.42,22.59-3.64,44.13-20.23,48.11-10.36,2.48-18.24-2.71-27.93-10.56C88.58,102.31,95,93.92,87.15,83.31c-7.37-10,2.21-40.92,18.8-44.9S140.39,49.52,145.8,72.11Z"/><ellipse class="cls-3" cx="115.76" cy="79.31" rx="18.55" ry="25.26" transform="translate(-15.3 29.17) rotate(-13.48)"/><ellipse class="cls-4" cx="115.97" cy="80.94" rx="13.32" ry="16.77" transform="matrix(0.97, -0.23, 0.23, 0.97, -15.67, 29.27)"/><path class="cls-3" d="M109,117.64s1.09-1,4.91-3.79,10.87-1.47,13.72-2.27,3.53-3.45,7.43-5.21a6.27,6.27,0,0,1,6.79,1s-4.3,8.83-14,12.13A25.15,25.15,0,0,1,109,117.64Z"/><path class="cls-5" d="M133.77,106.76c.39-2.09,2.47-3.08,4.14-4.45s1.42-3.3,1.42-4.46"/><path class="cls-5" d="M115.76,108.87s2.89,3.3,6.82,3"/><path class="cls-2" d="M81.59,15c15.75,6.38,21.59,28.93,13,50.46s-28.21,33.84-44,27.75c0,0-31.57-11.46-28-39.36S54.78,3.75,81.46,15Z"/><path class="cls-5" d="M41.19,88.39s22.6,4.53,35.19-16.85C85.16,60,77.45,35.29,77.45,35.29"/><path class="cls-1" d="M81.18,24.42s-2.8-3.53-6.41-3.37-8.2,1.23-6.8,4.4.2,11,2.2,10.58c0,0,4.6,1.23,6.2,0s4.41-4,4.81-7.23A11.43,11.43,0,0,0,81.18,24.42Z"/><path class="cls-1" d="M33.68,145.75S65.83,154.52,79,129.68,81.56,70.15,53.3,63.94Z"/><ellipse class="cls-2" cx="43.49" cy="104.85" rx="42.07" ry="30.9" transform="translate(-68.61 122.7) rotate(-76.52)"/><path class="cls-6" d="M22.07,139.05l-3.41-4.17s-1-2.5.37-3,5-.7,7,1,5.82,5,8.49,4.75,7.25.87,7.55.93,5.33,2.26,5.33,2.26,3.11,2.23,2.25,3.16-11.64,2.58-11.64,2.58l-8.75-2.39Z"/><ellipse class="cls-3" cx="43.49" cy="104.85" rx="25.26" ry="18.55" transform="translate(-68.61 122.7) rotate(-76.52)"/><ellipse class="cls-4" cx="43.1" cy="106.48" rx="16.2" ry="12.9" transform="translate(-69.54 129.02) rotate(-79.28)"/><path class="cls-5" d="M25.48,132.29c-.39-2.09-2.47-3.08-4.14-4.45s-1.42-3.3-1.42-4.45"/><path class="cls-5" d="M39.87,137.61a13.23,13.23,0,0,0,13.35-7.82"/><path class="cls-5" d="M36,132.79s-3.5,3.48-6.39,3.21"/><path class="cls-5" d="M17.44,133a6.25,6.25,0,0,1,6.78-1c3.91,1.76,4.58,4.41,7.44,5.21s9.9-.55,13.72,2.27,5.75,4,5.75,4-8.43,6.43-20.85,1.15A27.73,27.73,0,0,1,17.44,133Z"/></svg>