<svg id="Layer_1" data-name="Layer 1" xmlns="http://www.w3.org/2000/svg" viewBox="0 0 159.51 159.51"><defs><style>.cls-1{fill:#aa6221;}.cls-1,.cls-2,.cls-3{stroke:#000;stroke-miterlimit:10;stroke-width:3px;}.cls-2{fill:#e2e1d3;}.cls-3{fill:none;}</style></defs><path class="cls-1" d="M45.25,39.65c5.73,10.23,15.88,20.5,23.1,29.8C73.73,76.38,85.43,86.67,98.4,96c0,0,7.39,6.28,20.87-4.91s5.85-18.41,5.85-18.41c-5.52-5.9-10.46-11.91-13.26-17.87-6.3-13.39-16.42-33.14-30.67-41.71"/><ellipse class="cls-2" cx="64.15" cy="27.25" rx="22.6" ry="10.63" transform="translate(-4.44 39.65) rotate(-33.26)"/><path class="cls-3" d="M51.94,49.55S71.46,52.86,76.78,46"/><path class="cls-3" d="M121.9,69.15s-7,13.71-14.49,15.56"/><path class="cls-1" d="M112.86,37.27c-15,7.25-26.8,26-34.27,38.8C67.18,95.58,30.1,112.76,34.47,131.51s69.84-19.45,86.16-37c8-8.62,19.05-17.94,25.66-27.62"/><path class="cls-3" d="M34.85,133.17s-9.6,10-15.68,10"/><path class="cls-3" d="M34.47,131.51A46,46,0,0,1,12,134.32"/><path class="cls-3" d="M34.85,134.32s-4.16,10.12-1.05,13.17"/><path class="cls-3" d="M40.11,114.71s3,6.13,9,6.94"/><path class="cls-3" d="M84.92,120.45S74,119.7,70.38,113"/><path class="cls-3" d="M67.92,89.33s7.83,1.84,17.71,9.91"/><path class="cls-3" d="M132.44,82.79s-17.54-2.06-24.22-6.4"/><path class="cls-3" d="M121.11,80.77S109.5,92.22,99.17,91.21"/><path class="cls-3" d="M100.37,46.35s-2.4,7.38,9.17,15.3"/><ellipse class="cls-2" cx="128.57" cy="52.86" rx="10.63" ry="22.6" transform="translate(7.31 120.82) rotate(-51.62)"/><path class="cls-3" d="M99.42,32.57S90.21,51.51,81,54"/></svg>