<svg id="Layer_1" data-name="Layer 1" xmlns="http://www.w3.org/2000/svg" viewBox="0 0 159.49 159.49"><defs><style>.cls-1{fill:#cced85;}.cls-1,.cls-2,.cls-3{stroke:#000;stroke-miterlimit:10;stroke-width:3px;}.cls-2{fill:#d8be7d;}.cls-3{fill:#aa8b4b;}</style></defs><path class="cls-1" d="M53.82,147.69s36-58.87,93.69-86.76C147.51,60.93,69.94,56.91,53.82,147.69Z"/><path class="cls-1" d="M56.66,108.11S85.29,43,147.51,19.75C147.51,19.75,72.36,8.78,56.66,108.11Z"/><path class="cls-2" d="M76,27.45s17,6.7,23-9.83C99,17.62,81.83,12.93,76,27.45Z"/><path class="cls-2" d="M58.45,37s14.31-11.31,3-24.82C61.5,12.22,48.81,24.73,58.45,37Z"/><path class="cls-3" d="M67.77,45s15.6,9.46,24.32-5.81C92.09,39.16,75.93,31.64,67.77,45Z"/><path class="cls-2" d="M52.26,64s15.6,9.46,24.33-5.81C76.59,58.22,60.43,50.7,52.26,64Z"/><path class="cls-3" d="M41.14,84.14s15.6,9.46,24.33-5.82C65.47,78.32,49.31,70.8,41.14,84.14Z"/><path class="cls-2" d="M36,106.49s15.6,9.46,24.33-5.82C60.33,100.67,44.17,93.15,36,106.49Z"/><path class="cls-3" d="M43.87,55s11.32-14.31-2.76-24.86C41.11,30.14,31.65,45.25,43.87,55Z"/><path class="cls-2" d="M33,74.1s7.61-16.58-8.57-23.5C24.43,50.6,18.81,67.52,33,74.1Z"/><path class="cls-3" d="M29,97.57s4-17.81-13.28-21.2C15.67,76.37,13.71,94.09,29,97.57Z"/><path class="cls-2" d="M26.73,121.85s2.61-18.06-14.86-20.12C11.87,101.73,11.27,119.54,26.73,121.85Z"/></svg>