<svg id="Layer_1" data-name="Layer 1" xmlns="http://www.w3.org/2000/svg" viewBox="0 0 159.49 159.49"><defs><style>.cls-1{fill:#92ba5d;}.cls-1,.cls-2,.cls-3,.cls-4,.cls-5,.cls-6,.cls-7{stroke:#000;stroke-miterlimit:10;stroke-width:3px;}.cls-2{fill:#cced85;}.cls-3{fill:none;}.cls-4{fill:#553bb3;}.cls-5{fill:#383699;}.cls-6{fill:#7060e2;}.cls-7{fill:#545454;}</style></defs><path class="cls-1" d="M83.2,67.53,79.05,78.4,58.65,58.47S48.47,20.3,89.49,12c0,0,21.27,32.47-6.29,55.53"/><path class="cls-2" d="M79.75,76S90.55,32,147.49,41.76c0,0-2.17,41.38-45.26,55.19"/><path class="cls-3" d="M97,80.74s-2.21-22.22,33.11-16.6"/><path class="cls-3" d="M91.79,72.3S105.13,74.17,108,55.93"/><path class="cls-3" d="M79.07,77.13s-8.64-29.61,3.6-51.9"/><path class="cls-3" d="M76.18,50.68s.17-12.06-6.37-15.23"/><path class="cls-2" d="M76.8,75.46S67.6,28,12,28c0,0,5.55,44.08,26.68,54.87,0,0,18.15-1.79,29.22,13.42C67.9,96.32,64.94,78.85,76.8,75.46Z"/><path class="cls-3" d="M59,78.84S52,51.55,26.68,43.32"/><path class="cls-3" d="M29.58,59.82s9.62-7.21,19.24-.66"/><circle class="cls-4" cx="98.95" cy="91.16" r="23.12"/><circle class="cls-5" cx="60.05" cy="90.66" r="22.62"/><circle class="cls-4" cx="49.8" cy="123.4" r="23.12"/><circle class="cls-6" cx="83.2" cy="114.28" r="22.62"/><path class="cls-3" d="M110.59,64.14s16-3.38,20.82-16.62"/><path class="cls-7" d="M103.34,75.42s-.58,14,11.53,15.41"/><path class="cls-3" d="M79.05,98s3.62,10.69,17.42,8.19"/><path class="cls-3" d="M55.5,74.55s3.62,10.7,17.42,8.2"/><path class="cls-3" d="M34.91,113.75s9.05,6.73,19-3.17"/></svg>