<svg id="Layer_1" data-name="Layer 1" xmlns="http://www.w3.org/2000/svg" viewBox="0 0 159.49 159.49"><defs><style>.cls-1{fill:#564911;}.cls-2{fill:#f2d55a;}.cls-3{fill:none;}.cls-3,.cls-4,.cls-5{stroke:#000;stroke-miterlimit:10;stroke-width:3px;}.cls-4{fill:#bc9f22;}.cls-5{fill:#eaca2d;}</style></defs><path class="cls-1" d="M43.09,42.56s-6-2.44-8.28,1.27-4.09,5.49,0,6.32,8.28-2.08,8.28-2.08S46.49,43.83,43.09,42.56Z"/><path class="cls-1" d="M21.89,72.63s-6-2.44-8.28,1.27-2.54,6.36,1.55,7.2,6.73-3,6.73-3S25.29,73.89,21.89,72.63Z"/><path class="cls-2" d="M125,50.37s-20.34,16-39,13.29-38.73-17.6-38.73-17.6H44.65l-3,3.06v3s8.67,16.69,21.28,22.14,26.2,10.55,36.91,6.18a151.21,151.21,0,0,0,20.73-10.72Z"/><path class="cls-3" d="M117.08,55S85.15,81.1,44,43.23"/><path class="cls-3" d="M40.2,49.12S56.38,89.68,105,79.73"/><path class="cls-3" d="M36.21,42.77c2.65-1.34,6.06-1.78,8.8,1.42,0,0,.75,3.27-5.28,5.48s-7.35-1.6-7.35-1.6S33.56,44.12,36.21,42.77Z"/><path class="cls-4" d="M32.38,48.07s1.49,4,8,1.37c0,0,7.07,15.85,23.28,25.26,16.68,9.67,42.91,12.56,72.59-14.32L96,92.69,58.53,94.8l-5.56-6C26.59,68.59,32.38,48.07,32.38,48.07"/><path class="cls-3" d="M12.06,80.49s2,2.44,7.38-.41c0,0,30.37,48.35,85.55,16.45"/><path class="cls-2" d="M124.14,71.44,110.56,76.1s-19.62,15.26-38,14.66c-7.91-.26-17-.79-24.73-3.29a79,79,0,0,1-18.18-8.72l-4.95-3.53-2.38,1.52s-2.25,5.4-2.25,6,12.28,23.34,12.28,23.34l14.82,8.3,27.89,1.78L96.82,108s11.9.06,15.46-5.85a70.37,70.37,0,0,0,5.93-14l2.37-7Z"/><path class="cls-4" d="M12.06,80.49S28.61,137.93,84.87,121L113.66,98.1s1.22-4.81-3.1-4.35c-2.43.26-8.14,4.18-13.07,6.7-13.7,7-29.26,8.33-41.75,5.3s-27-12.37-36.57-25.67"/><path class="cls-5" d="M100.5,43.88a7.39,7.39,0,0,1-10.44-.33c-2.81-3-3.41-6.93,1-11s12.82-4.25,24.55-18.37c2.6-3.13,7.63-2.64,10.44.34a7.38,7.38,0,0,1-.27,10.44s-10,6.17.4,12.74c5.21,3.31,34.9,31.91,14.3,69.66C121.24,142.49,83.59,148,70,147.34c0,0-5.86-2.47-7.11-4.46s2.3-5.65,2.3-5.65,60.56-39.84,50.94-90.12c0,0-1.33-6.36-5.72-7.8S100.5,43.88,100.5,43.88Z"/><path class="cls-3" d="M72.72,141.94s72.59-25,56.37-85"/><path class="cls-3" d="M117,53.5a30.17,30.17,0,0,0-.34-13c-1.82-6.3-9.47-9.65-4.34-12.7,7.3-4.36,8.28-8.51,8.28-8.51"/><path class="cls-3" d="M105,33s-7.4,3.29-9,5.63"/><path class="cls-1" d="M67.51,146.17s3.49,1.91,4.35.52a7,7,0,0,0,.78-3.42s0-2.82-1.46-3.54a26.47,26.47,0,0,0-3.67-1.39s-2.38-1.49-3.76.69a5,5,0,0,0-.39,4.42Z"/><path class="cls-3" d="M115.26,72.39c-48.34,40.49-91.72,1.84-91.72,1.84a15.43,15.43,0,0,1-3,4.92c-1.86,1.8-8.17,3.37-8.5,1.34s.22-6.58,4.11-8.61c3.27-2,6.92,2,6.92,2"/><path class="cls-3" d="M70.61,147c1.86-.65,1.87-1.93,2.11-4.81.31-3.69-7.19-4.76-7.19-4.76s-1,0-1.78,1.64-2.24,3.45.22,4.82S68.75,147.6,70.61,147Z"/></svg>