<svg id="Layer_1" data-name="Layer 1" xmlns="http://www.w3.org/2000/svg" viewBox="0 0 159.49 159.49"><defs><style>.cls-1{fill:#cced85;}.cls-1,.cls-2,.cls-3,.cls-4{stroke:#000;stroke-miterlimit:10;stroke-width:3px;}.cls-2{fill:none;}.cls-3{fill:#593923;}.cls-4{fill:#423329;}</style></defs><path class="cls-1" d="M70.1,89S45.74,81.08,28.56,62.62C19.69,53.08,12,42.44,12,25.29c0,0,41.62-12.62,64.83,10.77S70.1,89,70.1,89Z"/><path class="cls-2" d="M75.32,72.64s-2.78-29-40.43-34.06"/><path class="cls-2" d="M66.55,54s-2.61-3.68-11.23-2.74S42.7,45.83,38,51.7"/><path class="cls-2" d="M53.67,34.57a10.86,10.86,0,0,0,4.8,12.35"/><ellipse class="cls-3" cx="61.87" cy="96" rx="38.54" ry="27.59" transform="translate(-51.23 80.07) rotate(-49.18)"/><path class="cls-4" d="M29.54,111.85A13.92,13.92,0,0,1,34,107.14c5.53-3.63,14.44-9,15.87-20.93,1.36-11.36,13-17,19.66-20.41,4.27-2.17,4.94-4,4.94-4a22.11,22.11,0,0,1,9.83,3.06A13.57,13.57,0,0,1,78.5,69.6c-6.79,3.05-17.79,7.49-21.43,22.68-3.18,13.24-12.1,16.78-17.9,20.36a20.33,20.33,0,0,0-7,7A22.57,22.57,0,0,1,29.54,111.85Z"/><ellipse class="cls-3" cx="115.52" cy="49.45" rx="39.84" ry="28.53" transform="translate(14.12 123.66) rotate(-59.37)"/><path class="cls-4" d="M110.06,86.43s-6.87-7.94,2.8-18.57c0,0,18.75-18.14,19.93-32.54s8.32-15.69,8.32-15.69a20.49,20.49,0,0,0-3.82-3.51,50.41,50.41,0,0,0-4.62-2.48c-7.61,3-5,14.07-10.49,27-5,11.95-9.85,18.35-19.44,24.15s-2.73,21-2.73,21A25,25,0,0,0,110.06,86.43Z"/><ellipse class="cls-3" cx="109.03" cy="119.69" rx="27.59" ry="38.54" transform="translate(-25.37 209.98) rotate(-81.56)"/><path class="cls-4" d="M78.33,100.88a14,14,0,0,1,6.39,1.27c6,2.73,15.37,7.34,26.17,2.19,10.32-4.93,21.29,1.84,27.76,5.68,4.13,2.44,6,2,6,2a22.12,22.12,0,0,1,2.68,9.94,13.56,13.56,0,0,1-7.14-2.38c-6.21-4.1-15.85-11-30.62-5.95-12.89,4.41-20.66-1.24-26.78-4.22a20.44,20.44,0,0,0-9.68-2.09A22.51,22.51,0,0,1,78.33,100.88Z"/></svg>