<svg id="Layer_1" data-name="Layer 1" xmlns="http://www.w3.org/2000/svg" viewBox="0 0 159.49 159.49"><defs><style>.cls-1{fill:#d8be7d;}.cls-1,.cls-4{stroke:#000;stroke-miterlimit:10;stroke-width:3px;}.cls-2{fill:#e2e1d3;}.cls-3{fill:#aa8b4b;}.cls-4{fill:none;}</style></defs><path class="cls-1" d="M145,101.55c10.19,22.73-14.5,39.58-32.92,44.28s-57.29,1.66-59.56-22.73C49.76,93.71,77.91,110.84,93,99.87S132.67,74.05,145,101.55Z"/><path class="cls-1" d="M81.63,16.77c21.31,12.9,10.59,40.8-1.88,55.15s-46.17,34-61.92,15.18C-1.15,64.49,31.75,62.57,38,45S55.86,1.17,81.63,16.77Z"/><path class="cls-2" d="M89.4,24.77S68.47,19.36,67.6,41.52,89.51,58.13,89.51,58.13l3.77-13.87-.15-11.95Z"/><path class="cls-3" d="M122.5,94.35l12.78-1.63,2.7-1.54-11-5.29-8.91.81-9.3,3.42-8.91,5.21L92.26,100s-5.39,3.76-9.34,3.68l-11.86.68H65.65s-2-.35-.71,4.34,4.33,14.53,8.36,15.94,10.53,6.84,18.17,5.15,18.22-5,21.12-8.63,5.19-6.5,4.58-13.79.87-10.73,2.58-11.65A29.4,29.4,0,0,1,122.5,94.35Z"/><path class="cls-2" d="M74.07,104.31s1.85,21.53,21.83,14.87S103.69,93,103.69,93l-6.91,4.27-8.36,5.07L79.88,104Z"/><path class="cls-4" d="M74.07,104.31s1.85,21.53,21.83,14.87S103.69,93,103.69,93"/><path class="cls-4" d="M145,101.55c10.19,22.73-14.5,39.58-32.92,44.28s-57.29,1.66-59.56-22.73C49.76,93.71,77.91,110.84,93,99.87S132.67,74.05,145,101.55Z"/><path class="cls-4" d="M64.46,105.78s2.94,32.27,34.64,22.28c19.82-6.23,19.11-15.37,17.45-25.13-2.17-12.68,23.14-10,23.14-10"/><path class="cls-3" d="M85.3,19.39s-3.82-5.24-13.51-1.68S60,27.88,60,27.88,54.56,40.21,56.48,46.8s7.66,15.13,7.66,15.13,3.79,5.46.32,8.61-9.31,7.56-9.31,7.56L44.52,86.58s-7.57,6.66-5,8,19-6.42,19-6.42,17.7-9.47,21.21-16.2a53.17,53.17,0,0,1,7.59-11s3.2-3.1-5-2.18a12.76,12.76,0,0,1-14-9.86c-.74-4.4-1.2-16.14,1.9-17.71s6-6.52,10.55-6.72a53.46,53.46,0,0,1,6.64,0L88,22Z"/><path class="cls-4" d="M81.63,16.77c21.31,12.9,10.59,40.8-1.88,55.15s-46.17,34-61.92,15.18C-1.15,64.49,31.75,62.57,38,45S55.86,1.17,81.63,16.77Z"/><path class="cls-4" d="M79.88,15.77s-18,.77-22.18,18.15c-5.39,22.27,6.65,22.56,8.51,33.44.41,2.41-6.64,7.65-13.32,12.34A82.85,82.85,0,0,0,37.21,94.35"/><path class="cls-4" d="M89.51,58.13S66.74,63.69,67.6,41.52,89.4,24.77,89.4,24.77"/></svg>