<svg id="Layer_1" data-name="Layer 1" xmlns="http://www.w3.org/2000/svg" viewBox="0 0 159.49 159.49"><defs><style>.cls-1{fill:#f4d240;}.cls-1,.cls-2,.cls-3,.cls-4{stroke:#000;stroke-miterlimit:10;stroke-width:3px;}.cls-2{fill:#637a37;}.cls-3{fill:none;}.cls-4{fill:#92ba5d;}</style></defs><path class="cls-1" d="M103.66,76.38,85.16,101l-14.5,10.55L52.26,64l4.59-2.46C59.06,33.77,68.6,12.84,80,12.84c13.06,0,23.65,27.33,23.65,61,0,.84,0,1.67,0,2.5"/><path class="cls-1" d="M103.66,76.38c0-.83,0-1.66,0-2.5,0-33.71-10.59-61-23.65-61-11.43,0-21,20.93-23.18,48.74"/><path class="cls-2" d="M75.79,143.36s-30.07,7.15-31.25-30.26S28.9,58.78,12,45c0,0,58.66-3,65.35,54.5"/><path class="cls-3" d="M73.51,128.27s-5.91-3.38-9.85-15.55c-3.07-9.47,0-28-9.85-36.34"/><line class="cls-3" x1="94.3" y1="79.75" x2="79.53" y2="79.75"/><line class="cls-3" x1="58.8" y1="43.32" x2="64.33" y2="43.32"/><path class="cls-3" d="M66.82,120.22S62.35,109,52.26,109"/><line class="cls-3" x1="95.05" y1="56.38" x2="70.66" y2="56.38"/><line class="cls-3" x1="100.62" y1="43.32" x2="83.91" y2="43.32"/><line class="cls-3" x1="78.74" y1="28.93" x2="89.08" y2="28.93"/><line class="cls-3" x1="73.51" y1="69.45" x2="65.87" y2="69.45"/><path class="cls-4" d="M77.07,148.44S48.7,60.08,147.49,73.25c0,0-36.29,14.3-41.58,35.91S103.68,141,77.07,148.44Z"/><path class="cls-3" d="M77.07,148.44s10-8.15,7.61-27.16C81.86,99.12,100.62,92,100.62,92"/><path class="cls-3" d="M85.16,128.27s0-16.92,11-13.68"/></svg>