<svg id="Layer_1" data-name="Layer 1" xmlns="http://www.w3.org/2000/svg" viewBox="0 0 159.49 159.49"><defs><style>.cls-1{fill:#92ba5d;}.cls-1,.cls-2,.cls-3,.cls-4,.cls-5{stroke:#000;stroke-miterlimit:10;stroke-width:3px;}.cls-2{fill:#637a37;}.cls-3{fill:#cced85;}.cls-4{fill:none;}.cls-5{fill:#efe4bf;}</style></defs><path class="cls-1" d="M106.43,71.77S99.87,69.53,91.52,75,74.69,90.31,58.3,88.8s-18,10.39-31.52,4.41C7.43,84.64,12.52,70.89,12.52,70.89c7.93-16,26.7,3.17,34.77,3.17,3.54,0,7.38-7.23,15.09-9.92,8.24-2.88,18.3-2.34,19.19-2.77,2.74-1.35,6.29-8.9,12.66-12.9s14-2.62,17.39-4.17S121.45,37,121.45,37s-1.62,8.83.79,15.33"/><path class="cls-2" d="M121,47.21s-16.7,11.08-18.52,40.93c-.35,5.74-13,8.28-16,19.64-3.41,13.28-15.38,15.92-24.21,18.84s-13.48,13.3-7.15,18.32,25.94,2.81,32-8.41c10.33-19.29,18.2-11.74,24.33-23.14,5.77-10.72,2.33-14.63,5.26-23.16,1.45-4.2,6.24-6.29,8.34-9.86C128.9,73.83,128.32,69,128.32,69"/><path class="cls-3" d="M126.75,24.45S101.31-.1,73.06,19.74c0,0,17.11,28.48,50.09,11.55"/><path class="cls-4" d="M115.26,25.58A32.18,32.18,0,0,0,90,21.64"/><ellipse class="cls-5" cx="28.09" cy="79.28" rx="5.72" ry="8.66" transform="translate(-54.62 63.97) rotate(-60)"/><ellipse class="cls-5" cx="68.92" cy="75.21" rx="9.05" ry="5.98" transform="translate(-16.73 19.8) rotate(-14.6)"/><ellipse class="cls-5" cx="102.48" cy="58.97" rx="9.04" ry="5.97" transform="translate(-15.67 63.37) rotate(-32.05)"/><path class="cls-4" d="M108.25,22.26s-11.2.48-12.38,5.49"/><path class="cls-3" d="M126.75,24.45s-19.93,22.87,16.06,65.92C142.81,90.37,160.63,27.14,126.75,24.45Z"/><path class="cls-4" d="M136.52,65.5c.67-27.91-9.77-41-9.77-41"/><path class="cls-4" d="M131.53,33.61s2.62,12.15-3.56,15.44"/><path class="cls-4" d="M134.06,42.07s2.09,11.93,9.12,12.8"/></svg>