<svg id="Layer_1" data-name="Layer 1" xmlns="http://www.w3.org/2000/svg" viewBox="0 0 84.64 84.64"><defs><style>.cls-1{fill:#2e2424;}.cls-2{fill:#2da5e8;}.cls-3{fill:#cff1ff;}.cls-4{fill:#ffc239;}</style></defs><polygon class="cls-1" points="70.65 43.94 73 36.63 66.88 29.87 64.51 21.05 57.1 19.06 51.94 13.37 43.02 15.29 34.2 12.93 28.77 18.36 21.27 19.97 18.47 28.66 12.02 35.12 14 42.53 11.65 49.84 17.77 56.61 20.14 65.42 27.55 67.41 32.71 73.11 41.63 71.18 50.45 73.55 55.88 68.12 63.38 66.5 66.18 57.81 72.64 51.36 70.65 43.94"/><polygon class="cls-2" points="63.78 43.77 65.56 38.23 60.92 33.11 59.13 26.43 53.52 24.92 49.61 20.61 42.85 22.07 36.17 20.28 32.06 24.39 26.37 25.61 24.25 32.2 19.36 37.09 20.87 42.7 19.09 48.24 23.73 53.37 25.52 60.05 31.14 61.55 35.04 65.86 41.8 64.41 48.48 66.2 52.59 62.09 58.28 60.86 60.4 54.28 65.29 49.39 63.78 43.77"/><path class="cls-3" d="M49.18,68.8l-7.44-2-7.53,1.62-4.34-4.8L23.61,62l-2-7.43-5.17-5.71,2-6.17-1.68-6.25,5.44-5.45,2.36-7.33,6.34-1.36,4.58-4.58,7.43,2L50.44,18l4.35,4.8L61,24.52,63,32l5.17,5.71-2,6.16,1.67,6.26-5.44,5.44-2.36,7.33-6.33,1.36ZM41.86,62l5.92,1.58L51.43,60l5-1.09L58.35,53l4.33-4.34-1.33-5,1.58-4.91-4.12-4.54-1.58-5.92-5-1.34-3.47-3.82-6,1.29-5.92-1.59-3.64,3.65-5,1.08-1.87,5.84L22,37.78l1.34,5-1.59,4.91,4.12,4.55,1.59,5.92,5,1.33,3.46,3.83Z"/><rect class="cls-4" x="42.73" y="32.62" width="7.21" height="22.87" transform="translate(44.73 -19.86) rotate(45)"/><rect class="cls-4" x="34.31" y="39.04" width="7.21" height="15.36" transform="translate(-21.93 40.5) rotate(-45)"/></svg>